
<svg width="20" height="20" viewBox="0 0 20 20" fill="none" xmlns="http://www.w3.org/2000/svg">
<path d="M9.99996 18.9583C5.05829 18.9583 1.04163 14.9417 1.04163 10C1.04163 5.05833 5.05829 1.04166 9.99996 1.04166C14.9416 1.04166 18.9583 5.05833 18.9583 10C18.9583 14.9417 14.9416 18.9583 9.99996 18.9583ZM9.99996 2.29166C5.74996 2.29166 2.29163 5.75 2.29163 10C2.29163 14.25 5.74996 17.7083 9.99996 17.7083C14.25 17.7083 17.7083 14.25 17.7083 10C17.7083 5.75 14.25 2.29166 9.99996 2.29166Z" fill="#058040"/>
<path d="M8.8167 12.9833C8.65003 12.9833 8.4917 12.9167 8.37503 12.8L6.0167 10.4417C5.77503 10.2 5.77503 9.8 6.0167 9.55833C6.25837 9.31666 6.65837 9.31666 6.90003 9.55833L8.8167 11.475L13.1 7.19166C13.3417 6.95 13.7417 6.95 13.9834 7.19166C14.225 7.43333 14.225 7.83333 13.9834 8.075L9.25837 12.8C9.1417 12.9167 8.98337 12.9833 8.8167 12.9833Z" fill="#058040"/>
</svg>

